<?xml version="1.0" encoding="utf-8"?>
<!-- Generator: Adobe Illustrator 16.0.0, SVG Export Plug-In . SVG Version: 6.00 Build 0)  -->
<!DOCTYPE svg PUBLIC "-//W3C//DTD SVG 1.1//EN" "http://www.w3.org/Graphics/SVG/1.1/DTD/svg11.dtd">
<svg version="1.1" id="Capa_1" xmlns="http://www.w3.org/2000/svg" xmlns:xlink="http://www.w3.org/1999/xlink" x="0px" y="0px"
	 width="512px" height="512px" viewBox="0 0 512 512" enable-background="new 0 0 512 512" xml:space="preserve">
<g id="_x35_coz8E_1_">
	
		<image overflow="visible" width="70" height="33" id="_x35_coz8E_2_" xlink:href="769390253A5D69C3.jpg"  transform="matrix(1 0 0 1 -299 180.1846)">
	</image>
</g>
<path fill="#857d7d" d="M398.945,221.251c-84.152-94.27-89.9-89.9-89.9-89.9H137.291l-73.116,91.74l-50.583,1.379
	c0,0-8.737,1.336-8.737,17.453c0,16.116,0,106.706,0,106.706s2.299,8.737,11.036,8.737c1.427,0,15.38-0.071,37.647-0.197
	c5.112-34.733,34.956-61.423,71.108-61.423c35.875,0,65.532,26.28,70.985,60.621c37.701-0.215,77.567-0.445,115.645-0.66
	c5.727-34.019,35.24-59.961,70.886-59.961c35.361,0,64.702,25.529,70.759,59.145c30.196-0.176,49.031-0.283,49.031-0.283
	S542.418,224.93,398.945,221.251z M218.685,225.39H111.08l45.985-68.518h61.62V225.39z M253.633,225.39v-68.518h45.065
	l52.883,68.518H253.633z"/>
</svg>
