<?xml version="1.0" encoding="utf-8"?>
<!-- Generator: Adobe Illustrator 16.0.0, SVG Export Plug-In . SVG Version: 6.00 Build 0)  -->
<!DOCTYPE svg PUBLIC "-//W3C//DTD SVG 1.1//EN" "http://www.w3.org/Graphics/SVG/1.1/DTD/svg11.dtd">
<svg version="1.1" id="Capa_1" xmlns="http://www.w3.org/2000/svg" xmlns:xlink="http://www.w3.org/1999/xlink" x="0px" y="0px"
	 width="512px" height="512px" viewBox="0 0 512 512" enable-background="new 0 0 512 512" xml:space="preserve">
<path fill="#857d7d" d="M509.78,54.774c0-25.384-26.589-29.192-26.589-29.192H229.347L2.155,190.581v10.154v17.769v223.384v10.154
	h10.154h261.46h225.856c5.608,0,10.154-4.542,10.154-10.154V210.889h0.064C509.845,210.889,509.78,80.159,509.78,54.774z
	 M451.461,287.012H349.923v-25.384h101.538V287.012z M459.076,226.09H37.694L247.086,66.167h185.336c0,0,25.384,1.27,26.653,22.846
	C460.345,110.59,459.076,226.09,459.076,226.09z"/>
</svg>
